<?xml version="1.0" encoding="UTF-8"?>
<svg id="Layer_1" data-name="Layer 1" xmlns="http://www.w3.org/2000/svg" viewBox="0 0 342.01 342.06">
  <defs>
    <style>
      .cls-1 {
        fill: #3da5bb;
      }

      .cls-1, .cls-2, .cls-3, .cls-4 {
        stroke-width: 0px;
      }

      .cls-2 {
        fill: #d00430;
      }

      .cls-3 {
        fill: #df0026;
      }

      .cls-4 {
        fill: #3ca5ba;
      }
    </style>
  </defs>
  <path class="cls-2" d="m108.96,109.44c.1-16.65-.11-33.32.38-49.96C110.33,25.56,138.23-.55,172.45,0c33.22.54,59.83,27.98,59.84,61.72,0,14.16-.01,28.32.02,42.48,0,1.81.27,3.63.42,5.44-1.4,1.15-2.91,2.2-4.19,3.48-38.45,38.41-76.88,76.84-115.29,115.28-1.16,1.16-2.11,2.52-3.16,3.79-.29.23-.6.27-.93.1-.01-5.83-.03-11.65-.04-17.48-.05-35.13-.11-70.25-.16-105.38Z"/>
  <path class="cls-3" d="m110.1,232.2c1.05-1.27,2-2.63,3.16-3.79,38.41-38.45,76.84-76.87,115.29-115.28,1.28-1.28,2.79-2.32,4.19-3.48,17.99.06,36.04-.84,53.95.4,31.6,2.17,56.71,31.22,55.28,62.44-1.54,33.55-27.6,59.61-60.21,60.02-14.66.18-29.33,0-43.99,0-1.82,0-3.64.22-5.46.33-1.98-.13-3.96-.38-5.94-.38-27.62-.03-55.23,0-82.85-.03-11.14-.01-22.28-.15-33.42-.23Z"/>
  <path class="cls-4" d="m110.1,232.2c11.14.08,22.28.21,33.42.23,27.62.03,55.23,0,82.85.03,1.98,0,3.96.25,5.94.38-.01,15.99-.01,31.98-.03,47.97-.04,31.94-24.7,58.66-56.36,61.06-32.63,2.48-61.33-20.27-65.89-52.46-.72-5.08-.67-10.28-.73-15.43-.14-13.82-.15-27.64-.21-41.46,0,0,.08-.22.08-.22.33.17.64.13.93-.1Z"/>
  <path class="cls-1" d="m109.16,232.3s-.08.23-.08.22c-18.62-.16-37.3.62-55.84-.7C25.62,229.86,1.61,203.98.11,176.31c-1.77-32.68,17.67-58.75,49.08-65.64,3.39-.74,6.9-1.22,10.36-1.24,16.47-.11,32.94-.01,49.41,0,.05,35.13.1,70.26.16,105.38,0,5.83.03,11.65.04,17.48Z"/>
</svg>